<svg id="svg" xmlns="http://www.w3.org/2000/svg" xmlns:xlink="http://www.w3.org/1999/xlink" width="400" height="134.95440729483283" viewBox="0, 0, 400,134.95440729483283"><g id="svgg"><path id="path0" d="M31.547 28.837 C 31.343 28.919,31.129 29.176,31.070 29.409 C 30.965 29.827,30.941 29.833,29.333 29.833 C 27.622 29.833,27.500 29.888,27.500 30.659 C 27.500 30.914,27.287 30.974,26.017 31.073 C 24.175 31.217,24.011 31.331,23.885 32.545 L 23.787 33.500 22.602 33.502 C 21.298 33.505,20.668 33.732,20.423 34.286 C 20.314 34.532,20.055 34.684,19.620 34.758 C 18.807 34.895,17.890 35.781,17.741 36.572 C 17.648 37.068,17.561 37.155,17.108 37.199 C 16.651 37.243,16.577 37.319,16.531 37.792 C 16.485 38.270,16.421 38.333,15.984 38.333 C 15.057 38.333,14.000 39.432,14.000 40.395 C 14.000 40.769,13.928 40.833,13.508 40.833 C 13.077 40.833,13.001 40.906,12.906 41.417 C 12.820 41.872,12.716 42.000,12.431 42.000 C 11.938 42.000,11.667 42.306,11.667 42.863 C 11.667 43.221,11.570 43.351,11.244 43.433 C 10.758 43.555,10.333 44.403,10.333 45.252 C 10.333 45.696,10.255 45.817,9.911 45.903 C 9.679 45.961,9.403 46.196,9.299 46.425 C 9.195 46.654,8.936 46.885,8.724 46.938 C 8.275 47.051,8.002 47.833,8.001 49.013 C 8.000 49.777,7.529 50.500,7.031 50.500 C 6.896 50.500,6.833 50.895,6.833 51.741 C 6.833 52.920,6.811 52.993,6.388 53.199 C 5.530 53.618,5.525 53.693,5.532 65.917 C 5.540 78.428,5.527 78.208,6.251 78.333 L 6.750 78.419 6.833 80.084 L 6.917 81.750 7.458 81.909 C 7.984 82.064,8.000 82.095,8.004 82.993 C 8.010 84.499,8.448 85.247,9.483 85.512 L 10.333 85.730 10.333 86.583 C 10.333 87.552,10.564 87.953,11.167 88.030 C 11.471 88.069,11.595 88.196,11.627 88.500 C 11.741 89.583,12.005 90.136,12.489 90.304 C 12.797 90.412,12.993 90.610,13.028 90.849 C 13.059 91.058,13.305 91.347,13.583 91.501 C 13.910 91.681,14.112 91.945,14.167 92.263 C 14.234 92.650,14.349 92.761,14.728 92.805 C 15.081 92.845,15.255 92.990,15.394 93.359 C 15.518 93.687,15.729 93.887,16.011 93.944 C 16.314 94.004,16.485 94.184,16.595 94.556 C 16.706 94.935,16.891 95.125,17.250 95.231 C 17.563 95.324,17.844 95.573,18.000 95.898 C 18.195 96.302,18.383 96.435,18.853 96.500 C 19.267 96.557,19.598 96.753,19.908 97.124 C 20.157 97.421,20.599 97.726,20.889 97.800 C 21.272 97.899,21.433 98.048,21.475 98.343 C 21.555 98.898,21.761 98.994,22.875 98.997 C 23.763 99.000,23.833 99.028,23.833 99.383 C 23.833 99.994,24.153 100.167,25.283 100.167 C 26.268 100.167,26.333 100.191,26.333 100.550 C 26.333 101.036,26.628 101.333,27.108 101.333 C 27.352 101.333,27.558 101.493,27.701 101.792 C 27.948 102.310,28.875 102.630,30.190 102.653 C 30.874 102.665,30.976 102.716,31.070 103.089 C 31.130 103.330,31.358 103.581,31.599 103.673 C 32.574 104.043,370.016 103.873,370.625 103.502 C 370.923 103.320,371.167 103.058,371.167 102.919 C 371.167 102.728,371.379 102.663,372.042 102.650 C 373.369 102.625,373.741 102.477,373.803 101.952 C 373.844 101.602,373.945 101.500,374.252 101.500 C 374.783 101.500,375.794 100.887,375.921 100.488 C 376.000 100.238,376.178 100.167,376.720 100.166 C 377.495 100.165,378.500 99.650,378.500 99.252 C 378.500 99.063,378.697 98.999,379.292 98.998 C 380.275 98.994,380.873 98.705,380.999 98.171 C 381.060 97.914,381.248 97.728,381.506 97.669 C 381.754 97.613,382.016 97.365,382.167 97.042 C 382.369 96.608,382.516 96.507,382.941 96.504 C 383.468 96.500,383.667 96.274,383.667 95.675 C 383.667 95.444,383.840 95.357,384.435 95.290 C 385.423 95.179,385.845 94.757,385.957 93.769 C 386.037 93.057,386.078 93.000,386.513 93.000 C 386.772 93.000,387.043 92.898,387.117 92.774 C 387.190 92.650,387.419 92.460,387.625 92.352 C 387.831 92.244,388.000 92.045,388.000 91.911 C 388.000 91.777,388.065 91.667,388.145 91.667 C 388.225 91.667,388.467 91.408,388.684 91.093 C 388.900 90.777,389.210 90.484,389.372 90.442 C 389.583 90.386,389.667 90.199,389.667 89.777 C 389.667 89.295,389.734 89.180,390.042 89.137 C 390.269 89.104,390.515 88.876,390.667 88.556 C 390.804 88.266,391.142 87.928,391.417 87.806 C 391.864 87.607,391.933 87.474,392.071 86.542 C 392.208 85.616,392.267 85.500,392.603 85.500 C 393.099 85.500,393.160 85.375,393.277 84.120 C 393.358 83.255,393.440 83.032,393.729 82.905 C 393.923 82.820,394.178 82.548,394.295 82.302 C 394.413 82.055,394.657 81.806,394.838 81.749 C 395.350 81.586,395.573 81.024,395.665 79.668 C 395.749 78.435,395.756 78.417,396.249 78.333 C 396.973 78.208,396.960 78.428,396.968 65.917 C 396.975 53.693,396.970 53.618,396.112 53.199 C 395.707 53.002,395.666 52.895,395.664 52.033 C 395.661 50.923,395.569 50.732,394.966 50.581 C 394.642 50.500,394.505 50.347,394.468 50.026 C 394.429 49.690,394.287 49.545,393.875 49.424 C 393.346 49.268,393.333 49.243,393.333 48.311 C 393.333 47.290,393.072 46.833,392.488 46.833 C 392.226 46.833,392.167 46.714,392.167 46.188 C 392.167 45.121,391.976 44.462,391.641 44.375 C 391.472 44.331,391.333 44.246,391.333 44.187 C 391.333 43.893,390.439 43.167,390.077 43.167 C 389.706 43.167,389.666 43.099,389.664 42.458 C 389.661 41.292,389.527 41.020,388.898 40.902 C 388.460 40.820,388.333 40.714,388.333 40.431 C 388.333 39.966,388.034 39.667,387.569 39.667 C 387.283 39.667,387.180 39.539,387.093 39.077 C 387.003 38.595,386.894 38.470,386.491 38.390 C 386.128 38.317,386.000 38.197,386.000 37.929 C 386.000 37.417,385.688 37.167,385.050 37.167 C 384.654 37.167,384.500 37.091,384.500 36.897 C 384.500 36.662,384.160 36.177,383.267 35.139 C 383.129 34.978,382.640 34.812,382.112 34.746 C 381.234 34.637,381.193 34.609,381.091 34.066 L 380.985 33.500 379.826 33.500 C 378.697 33.500,378.667 33.489,378.667 33.078 C 378.667 31.753,378.055 31.286,376.042 31.069 C 375.093 30.967,375.000 30.922,375.000 30.568 C 375.000 29.990,374.527 29.833,372.784 29.833 C 371.218 29.833,371.212 29.832,370.595 29.250 L 369.976 28.667 200.946 28.677 C 102.131 28.683,31.763 28.750,31.547 28.837 M145.839 45.086 C 146.133 45.238,146.370 45.522,146.431 45.795 C 146.487 46.045,146.600 46.519,146.682 46.847 C 146.764 47.176,146.821 48.009,146.807 48.700 C 146.783 49.984,147.210 51.647,147.575 51.685 C 147.993 51.729,148.596 51.626,148.742 51.486 C 149.156 51.087,151.522 51.791,151.947 52.440 C 152.304 52.984,152.425 54.923,152.169 55.990 C 151.870 57.236,151.556 57.389,149.057 57.507 C 147.929 57.561,146.959 57.652,146.901 57.710 C 146.844 57.768,146.805 61.358,146.815 65.688 L 146.833 73.560 147.261 73.840 C 147.497 73.995,148.218 74.170,148.871 74.231 C 150.292 74.363,151.631 75.008,151.974 75.726 C 152.463 76.748,152.352 79.333,151.819 79.333 C 151.734 79.333,151.503 79.520,151.305 79.747 C 149.917 81.343,146.504 81.767,144.444 80.600 C 143.818 80.245,143.269 79.859,143.224 79.743 C 143.180 79.628,142.892 79.486,142.585 79.428 C 142.027 79.323,141.884 79.162,140.888 77.516 C 140.688 77.186,140.457 76.840,140.374 76.746 C 139.551 75.813,139.586 76.238,139.545 66.762 C 139.501 56.560,139.621 57.515,138.384 57.532 C 136.135 57.563,135.833 57.215,135.833 54.583 C 135.833 52.067,136.904 50.910,138.665 51.524 C 139.385 51.776,139.374 51.811,139.522 48.798 C 139.669 45.784,139.798 45.419,140.849 45.051 C 141.712 44.749,145.235 44.774,145.839 45.086 M320.683 45.027 C 320.995 45.134,321.510 45.471,321.828 45.777 L 322.406 46.333 322.434 48.291 C 322.475 51.114,322.625 51.324,324.599 51.331 C 326.219 51.337,327.218 52.560,327.192 54.505 C 327.160 56.985,326.721 57.440,324.201 57.605 C 322.624 57.709,322.499 57.742,322.491 58.067 C 322.406 61.447,322.520 73.753,322.637 73.871 C 322.724 73.957,323.382 74.100,324.101 74.190 C 326.347 74.469,327.167 75.332,327.167 77.421 C 327.167 79.066,326.527 79.915,324.583 80.850 C 322.507 81.849,321.972 81.744,318.000 79.564 C 317.771 79.438,317.502 79.335,317.403 79.334 C 317.004 79.332,316.165 77.991,315.849 76.851 C 315.618 76.016,315.384 75.551,315.053 75.266 L 314.583 74.862 314.546 66.324 C 314.525 61.628,314.475 57.753,314.436 57.713 C 314.396 57.674,313.730 57.583,312.957 57.513 C 311.062 57.340,310.803 57.107,310.572 55.367 C 310.267 53.065,310.953 51.780,312.508 51.740 C 314.181 51.697,314.386 51.362,314.512 48.472 C 314.629 45.811,314.814 45.438,316.211 45.058 C 317.149 44.803,319.972 44.784,320.683 45.027 M87.310 50.770 C 87.595 50.827,88.027 51.058,88.270 51.283 C 88.765 51.742,89.345 52.000,89.886 52.001 C 90.781 52.003,91.532 52.385,92.521 53.340 C 93.086 53.886,93.599 54.333,93.661 54.333 C 94.024 54.333,95.159 56.087,95.260 56.804 C 95.320 57.233,95.549 57.897,95.768 58.280 C 96.947 60.339,95.862 61.334,92.438 61.332 C 89.750 61.331,88.862 60.903,88.465 59.418 C 88.034 57.805,87.120 57.335,84.417 57.335 C 80.871 57.335,79.140 60.893,82.350 61.585 C 82.992 61.723,83.788 62.095,84.184 62.440 C 84.520 62.735,86.497 63.160,87.546 63.164 C 88.323 63.167,91.309 64.389,91.569 64.811 C 91.625 64.901,91.894 65.023,92.167 65.083 C 92.440 65.143,92.871 65.436,93.124 65.733 C 93.376 66.030,93.910 66.531,94.310 66.845 C 94.709 67.159,95.215 67.754,95.435 68.167 C 95.655 68.579,96.003 69.128,96.209 69.387 C 96.955 70.324,96.629 75.167,95.820 75.167 C 95.726 75.167,95.474 75.562,95.260 76.044 C 95.017 76.595,94.570 77.185,94.061 77.628 C 93.615 78.016,93.025 78.554,92.750 78.823 C 92.467 79.100,91.978 79.361,91.624 79.425 C 91.279 79.487,90.829 79.665,90.624 79.820 C 90.418 79.975,89.650 80.360,88.917 80.676 L 87.583 81.250 84.917 81.250 C 82.033 81.250,82.360 81.324,79.750 80.081 C 79.108 79.775,78.309 79.441,77.974 79.338 C 77.640 79.236,77.161 78.962,76.912 78.731 C 76.662 78.499,76.167 78.118,75.812 77.883 C 75.457 77.648,75.167 77.400,75.167 77.333 C 75.167 77.265,74.867 76.833,74.500 76.373 C 74.133 75.912,73.831 75.471,73.828 75.393 C 73.825 75.314,73.638 74.875,73.413 74.417 C 72.820 73.212,72.911 71.401,73.599 70.711 C 73.711 70.598,73.830 70.426,73.863 70.329 C 73.972 70.001,76.114 69.616,76.696 69.819 C 76.982 69.918,77.510 70.000,77.869 70.000 C 79.051 70.000,79.999 70.863,80.432 72.333 C 80.832 73.688,80.854 73.712,82.100 74.153 C 83.432 74.623,86.632 74.768,87.025 74.375 C 87.140 74.260,87.398 74.167,87.598 74.167 C 88.378 74.167,88.707 73.658,88.790 72.321 L 88.867 71.083 88.058 70.483 C 86.324 69.194,85.060 68.707,82.942 68.509 C 80.859 68.315,80.229 68.125,80.075 67.641 C 80.020 67.467,79.820 67.333,79.614 67.332 C 79.165 67.330,77.500 66.570,77.500 66.368 C 77.500 66.287,77.309 66.133,77.076 66.027 C 76.842 65.920,76.524 65.612,76.369 65.341 C 76.214 65.071,75.912 64.806,75.699 64.752 C 75.455 64.691,75.216 64.426,75.054 64.036 C 74.913 63.695,74.692 63.356,74.564 63.282 C 73.214 62.507,73.226 56.748,74.579 56.229 C 74.705 56.180,74.920 55.859,75.058 55.514 C 75.196 55.170,75.521 54.752,75.779 54.585 C 76.038 54.419,76.658 53.872,77.157 53.369 C 78.184 52.336,78.676 52.089,80.042 51.925 C 80.737 51.841,81.048 51.722,81.171 51.491 C 81.569 50.749,85.119 50.332,87.310 50.770 M207.304 50.769 C 207.586 50.825,208.055 51.085,208.347 51.346 C 208.691 51.653,209.148 51.859,209.647 51.930 C 210.821 52.099,211.327 52.375,212.417 53.438 C 212.967 53.974,213.567 54.491,213.750 54.586 C 213.933 54.680,214.208 55.019,214.361 55.337 C 215.192 57.074,215.500 57.772,215.500 57.920 C 215.500 58.011,215.706 58.460,215.958 58.918 L 216.417 59.750 216.446 69.250 C 216.484 81.314,216.693 80.667,212.756 80.667 C 210.474 80.667,210.320 80.605,209.745 79.457 C 209.505 78.976,209.153 78.417,208.963 78.213 L 208.617 77.842 208.051 78.568 C 207.672 79.056,207.312 79.329,206.959 79.400 C 206.670 79.458,206.279 79.640,206.091 79.804 C 203.799 81.812,199.013 81.798,196.653 79.777 C 196.497 79.644,196.145 79.485,195.870 79.425 C 195.549 79.354,195.110 79.005,194.646 78.449 C 194.247 77.973,193.759 77.452,193.560 77.292 C 193.361 77.132,193.079 76.650,192.933 76.222 C 192.787 75.794,192.564 75.326,192.437 75.180 C 191.626 74.253,191.691 70.020,192.538 68.654 C 192.676 68.432,192.885 67.888,193.003 67.445 C 193.155 66.876,193.329 66.597,193.595 66.496 C 193.802 66.417,194.017 66.207,194.074 66.030 C 194.130 65.853,194.511 65.530,194.921 65.313 C 195.331 65.095,195.667 64.869,195.667 64.811 C 195.667 64.645,197.890 63.365,198.344 63.270 C 198.567 63.223,199.725 63.062,200.917 62.913 C 202.108 62.763,203.249 62.560,203.451 62.463 C 203.715 62.335,204.090 62.339,204.771 62.476 C 206.595 62.842,207.320 62.747,208.035 62.050 C 208.774 61.328,208.908 60.370,208.354 59.761 C 208.182 59.572,207.916 59.028,207.761 58.553 C 207.443 57.574,206.868 57.332,204.867 57.335 C 201.950 57.338,200.901 57.936,199.899 60.167 C 199.273 61.561,195.052 61.794,193.679 60.511 C 192.924 59.806,192.910 57.941,193.653 57.181 C 193.920 56.907,194.193 56.512,194.260 56.303 C 194.446 55.714,195.648 54.167,195.918 54.167 C 196.051 54.167,196.278 53.986,196.423 53.764 C 196.568 53.543,196.930 53.247,197.227 53.105 C 197.524 52.964,197.902 52.701,198.065 52.520 C 198.229 52.339,198.675 52.143,199.057 52.084 C 200.115 51.920,200.816 51.668,200.969 51.395 C 201.312 50.783,205.368 50.382,207.304 50.769 M272.800 51.081 C 273.421 51.603,273.667 52.541,273.667 54.387 C 273.667 57.065,273.177 57.518,270.167 57.631 C 268.492 57.693,268.197 57.748,267.833 58.067 C 267.604 58.268,267.210 58.535,266.958 58.661 C 266.706 58.787,266.500 58.994,266.500 59.121 C 266.500 59.248,266.268 59.564,265.984 59.823 L 265.469 60.294 265.491 69.063 C 265.515 78.727,265.515 78.733,264.500 79.776 C 263.200 81.111,259.295 81.005,258.648 79.617 C 258.554 79.415,258.332 78.987,258.155 78.667 C 257.846 78.106,257.834 77.622,257.834 66.002 L 257.833 53.921 258.290 53.019 C 258.636 52.335,258.889 52.059,259.332 51.881 C 259.653 51.752,260.153 51.538,260.442 51.406 C 261.887 50.747,263.589 51.354,264.163 52.733 C 264.477 53.488,264.524 53.530,264.793 53.295 C 264.953 53.154,265.252 52.988,265.458 52.925 C 265.665 52.862,265.833 52.743,265.833 52.660 C 265.833 52.441,266.658 52.048,267.416 51.906 C 267.838 51.827,268.257 51.585,268.596 51.225 C 269.321 50.457,271.951 50.367,272.800 51.081 M202.387 68.616 C 202.188 68.655,201.935 68.795,201.825 68.927 C 201.715 69.059,201.534 69.167,201.423 69.167 C 200.995 69.167,199.586 70.958,199.497 71.615 C 199.228 73.576,199.731 74.050,202.176 74.137 C 204.796 74.230,206.012 73.988,206.633 73.248 C 206.881 72.954,207.252 72.624,207.458 72.517 C 207.665 72.410,207.833 72.225,207.833 72.107 C 207.833 71.988,208.024 71.713,208.257 71.494 C 208.939 70.853,208.814 68.801,208.083 68.646 C 207.530 68.528,202.962 68.504,202.387 68.616 " stroke="none" fill="#fc7304" fill-rule="evenodd"></path><path id="path1" d="M142.583 46.528 C 141.353 46.760,141.322 46.824,141.160 49.428 C 140.976 52.388,140.480 53.125,138.656 53.154 C 137.137 53.179,136.438 54.733,137.492 55.742 C 137.907 56.140,138.078 56.198,138.591 56.114 C 139.360 55.990,140.305 56.362,140.750 56.965 C 141.071 57.399,141.087 57.748,141.167 66.083 L 141.250 74.750 141.676 75.417 C 141.910 75.783,142.192 76.394,142.302 76.773 C 143.073 79.428,150.104 80.249,150.574 77.739 C 150.756 76.770,150.177 76.296,148.167 75.767 C 145.442 75.050,145.667 75.948,145.667 65.750 C 145.667 55.380,145.421 56.261,148.388 56.003 C 150.352 55.832,150.667 55.634,150.667 54.561 C 150.667 53.549,150.246 53.309,148.200 53.155 C 145.868 52.978,145.667 52.731,145.666 50.039 C 145.664 46.519,145.233 46.028,142.583 46.528 M317.480 46.584 C 316.790 46.959,316.552 47.719,316.434 49.916 C 316.304 52.350,316.213 52.479,314.196 53.065 C 312.296 53.617,311.963 53.973,312.270 55.118 C 312.373 55.502,312.920 55.758,314.684 56.249 C 315.214 56.397,315.790 56.693,316.017 56.935 L 316.417 57.360 316.500 66.055 C 316.559 72.196,316.640 74.848,316.776 75.085 C 316.882 75.269,317.125 75.863,317.315 76.404 C 317.780 77.727,318.371 78.198,320.384 78.850 C 322.766 79.621,325.337 79.219,325.596 78.034 C 325.650 77.786,325.720 77.499,325.750 77.397 C 325.968 76.669,324.969 76.012,323.229 75.739 C 320.665 75.336,320.690 75.434,320.654 65.642 C 320.618 55.581,320.429 56.160,323.767 56.102 C 325.345 56.075,325.566 55.924,325.720 54.772 C 325.891 53.501,325.490 53.220,323.196 53.003 C 320.860 52.782,320.734 52.628,320.633 49.865 C 320.513 46.615,319.453 45.512,317.480 46.584 M82.583 52.756 C 78.672 53.824,78.915 53.722,77.812 54.756 C 75.482 56.939,74.816 58.989,75.594 61.583 C 76.096 63.259,78.118 65.269,79.786 65.752 C 80.316 65.906,80.825 66.091,80.917 66.163 C 81.314 66.477,83.607 67.175,85.033 67.416 C 87.730 67.872,90.319 69.562,90.590 71.044 C 90.887 72.669,90.109 74.666,88.947 75.257 C 85.851 76.832,83.693 76.844,80.768 75.301 C 80.397 75.105,79.352 74.002,79.340 73.794 C 79.249 72.178,76.027 70.836,74.834 71.916 C 73.715 72.929,76.349 76.871,79.027 78.191 C 81.246 79.284,85.416 79.612,88.250 78.915 C 89.167 78.689,90.012 78.504,90.129 78.502 C 90.362 78.500,91.709 77.610,92.276 77.083 C 92.474 76.900,92.822 76.621,93.050 76.463 C 95.257 74.941,95.388 69.897,93.270 68.017 C 92.898 67.687,92.417 67.231,92.201 67.004 C 91.774 66.555,90.412 65.837,89.982 65.835 C 89.834 65.834,89.293 65.609,88.778 65.334 C 88.170 65.010,87.301 64.743,86.296 64.573 C 80.707 63.626,78.164 61.110,79.787 58.129 C 81.589 54.817,87.421 54.672,89.452 57.888 C 89.693 58.271,90.046 58.827,90.237 59.124 C 90.427 59.421,90.696 59.667,90.833 59.671 C 90.971 59.674,91.229 59.787,91.407 59.922 C 92.173 60.502,94.219 59.929,94.434 59.075 C 94.663 58.160,93.556 56.528,91.167 54.257 C 90.757 53.867,88.386 53.061,86.533 52.681 C 85.364 52.441,83.615 52.474,82.583 52.756 M202.577 52.740 C 201.045 53.046,198.780 53.824,198.500 54.141 C 198.362 54.297,197.896 54.631,197.464 54.883 C 195.652 55.939,194.734 58.543,195.875 59.391 C 197.002 60.229,199.167 59.535,199.167 58.336 C 199.167 57.130,203.531 55.050,205.282 55.421 C 206.818 55.747,208.900 57.065,209.411 58.034 C 209.570 58.336,209.842 58.846,210.016 59.167 C 210.540 60.132,210.471 62.478,209.899 63.158 C 209.189 64.001,208.988 64.043,204.922 64.187 C 200.738 64.335,198.667 64.624,198.105 65.137 C 197.910 65.316,197.423 65.627,197.023 65.827 C 196.386 66.147,195.394 66.918,194.978 67.417 C 193.791 68.838,193.600 69.615,193.694 72.628 L 193.762 74.810 194.378 75.696 C 195.914 77.904,196.419 78.307,198.250 78.786 C 200.580 79.396,201.982 79.449,203.701 78.991 C 204.461 78.789,205.271 78.585,205.500 78.537 C 205.729 78.490,206.514 77.934,207.244 77.301 C 209.095 75.698,209.658 75.709,210.450 77.366 C 210.932 78.375,211.049 78.501,211.674 78.689 C 212.452 78.922,214.114 78.678,214.365 78.294 C 214.656 77.850,214.712 77.243,214.526 76.549 C 214.393 76.052,214.334 73.434,214.335 68.123 C 214.338 58.091,214.225 57.447,212.072 55.266 C 210.675 53.850,210.367 53.658,208.833 53.248 C 205.952 52.478,204.491 52.359,202.577 52.740 M269.417 52.824 C 267.786 53.279,266.686 53.827,265.935 54.557 C 264.660 55.796,263.969 55.729,263.472 54.318 C 263.094 53.247,261.053 52.798,260.322 53.625 L 259.917 54.083 259.867 65.583 C 259.809 78.943,259.797 78.833,261.393 78.833 C 263.605 78.833,263.528 79.180,263.558 69.106 C 263.586 59.415,263.479 60.212,264.992 58.437 C 266.246 56.967,266.673 56.752,268.869 56.489 C 271.810 56.138,272.068 55.963,271.968 54.389 C 271.872 52.884,271.036 52.371,269.417 52.824 M208.238 67.164 C 210.962 67.610,211.261 70.975,208.786 73.341 C 208.216 73.886,207.700 74.332,207.638 74.332 C 207.576 74.333,207.312 74.513,207.052 74.732 C 205.153 76.330,200.135 76.196,198.609 74.506 C 196.986 72.710,197.052 71.397,198.867 69.368 C 200.691 67.328,204.201 66.503,208.238 67.164 " stroke="none" fill="#fce9d9" fill-rule="evenodd"></path><path id="path2" d="M142.750 45.418 C 140.302 45.769,140.176 45.943,139.992 49.215 C 139.840 51.920,139.798 52.000,138.521 52.001 C 136.777 52.002,136.167 52.676,136.167 54.602 C 136.167 56.449,136.834 57.167,138.549 57.167 C 140.081 57.167,139.978 56.541,140.034 66.255 L 140.083 74.750 140.543 75.667 C 141.553 77.679,142.404 78.876,143.003 79.125 C 143.322 79.257,143.808 79.482,144.083 79.625 C 144.358 79.767,144.800 79.996,145.065 80.132 C 146.814 81.035,149.682 80.422,151.292 78.801 C 151.860 78.229,151.823 76.823,151.217 76.016 C 150.616 75.215,150.644 75.228,149.100 75.001 C 148.327 74.887,147.557 74.666,147.298 74.484 C 147.050 74.309,146.778 74.167,146.693 74.167 C 146.377 74.167,146.338 73.231,146.336 65.554 C 146.333 56.338,146.134 57.167,148.351 57.167 C 150.723 57.167,151.590 56.579,151.670 54.917 C 151.736 53.533,151.689 53.353,151.096 52.706 L 150.526 52.083 148.871 52.061 C 146.286 52.025,146.333 52.088,146.333 48.654 C 146.333 45.678,145.594 45.010,142.750 45.418 M317.167 45.532 C 315.404 46.279,315.315 46.433,315.169 49.000 C 315.019 51.658,314.906 51.853,313.358 52.112 C 311.268 52.461,311.016 52.821,311.133 55.284 C 311.187 56.415,312.338 57.167,314.014 57.167 C 314.196 57.167,314.530 57.288,314.756 57.436 L 315.167 57.705 315.167 65.771 C 315.167 70.530,315.231 73.957,315.324 74.127 C 315.411 74.286,315.674 74.942,315.909 75.583 C 316.886 78.251,317.449 78.955,318.917 79.350 C 319.283 79.449,319.733 79.661,319.917 79.820 C 321.517 81.216,325.632 80.486,326.308 78.688 C 327.092 76.597,326.347 75.283,324.182 74.938 C 322.960 74.744,322.753 74.656,322.160 74.077 L 321.500 73.432 321.500 65.580 L 321.500 57.728 322.089 57.448 C 322.490 57.256,323.106 57.167,324.018 57.167 C 325.681 57.167,326.168 56.800,326.505 55.292 C 326.987 53.139,326.111 52.000,323.976 52.000 C 321.827 52.000,321.500 51.543,321.500 48.534 C 321.500 46.471,321.362 46.148,320.270 45.652 C 319.506 45.306,317.853 45.242,317.167 45.532 M145.708 46.490 C 145.805 46.725,145.942 47.997,146.013 49.317 C 146.177 52.349,146.188 52.364,148.284 52.457 C 150.543 52.557,151.333 53.108,151.333 54.583 C 151.333 55.973,150.425 56.661,148.583 56.668 C 145.830 56.677,146.000 56.086,146.000 65.667 C 146.000 75.200,145.905 74.787,148.176 75.174 C 150.507 75.571,151.437 76.352,151.224 77.731 C 151.124 78.374,150.368 79.333,149.961 79.333 C 149.881 79.333,149.463 79.501,149.033 79.707 C 148.023 80.189,146.536 80.179,145.415 79.683 C 144.980 79.491,144.554 79.333,144.468 79.333 C 143.705 79.333,142.460 78.414,142.023 77.527 C 141.768 77.008,141.339 76.171,141.071 75.667 L 140.583 74.750 140.537 66.222 L 140.491 57.694 139.906 57.179 C 139.396 56.732,139.236 56.678,138.670 56.769 C 137.875 56.896,136.963 56.404,136.700 55.707 C 135.981 53.799,136.872 52.348,138.682 52.478 C 139.167 52.513,139.418 52.419,139.835 52.047 L 140.367 51.571 140.481 49.210 C 140.625 46.214,140.702 46.099,142.723 45.888 C 144.482 45.705,145.466 45.903,145.708 46.490 M319.985 45.979 C 320.823 46.213,321.039 46.795,321.178 49.198 C 321.354 52.238,321.327 52.207,323.963 52.410 C 325.713 52.545,326.167 52.992,326.167 54.583 C 326.167 56.204,325.631 56.712,323.853 56.777 C 320.980 56.882,321.167 56.261,321.167 65.736 L 321.167 73.661 321.875 74.390 C 322.540 75.075,322.653 75.126,323.707 75.220 C 325.493 75.380,326.165 76.014,326.166 77.539 C 326.168 79.402,322.928 80.817,320.960 79.813 C 320.578 79.618,319.866 79.321,319.377 79.153 C 317.643 78.557,316.973 77.680,316.075 74.839 L 315.657 73.514 315.673 65.684 C 315.684 60.570,315.630 57.743,315.517 57.532 C 315.362 57.242,314.978 57.092,312.218 56.246 C 310.766 55.800,311.382 53.092,313.028 52.682 C 315.525 52.059,315.666 51.885,315.668 49.438 C 315.669 47.291,316.176 46.153,317.222 45.949 C 317.797 45.837,319.545 45.856,319.985 45.979 M269.417 51.567 C 268.958 51.781,268.162 52.120,267.647 52.322 C 267.132 52.523,266.209 53.065,265.595 53.528 C 264.981 53.990,264.455 54.341,264.426 54.309 C 264.397 54.277,264.177 53.858,263.936 53.379 C 262.922 51.360,259.621 51.511,258.822 53.613 C 258.544 54.345,258.622 77.737,258.905 78.414 C 259.491 79.817,261.644 80.416,263.169 79.600 C 264.678 78.794,264.582 79.455,264.593 69.767 C 264.603 59.895,264.516 60.449,266.392 58.394 C 267.141 57.573,267.735 57.390,270.067 57.262 C 272.512 57.129,273.000 56.626,273.000 54.239 C 273.000 51.614,271.583 50.557,269.417 51.567 M82.167 51.659 C 81.754 51.832,80.742 52.181,79.917 52.435 C 78.666 52.819,78.286 53.022,77.633 53.656 C 77.201 54.074,76.538 54.705,76.158 55.058 C 75.777 55.411,75.322 56.011,75.146 56.392 C 74.969 56.772,74.659 57.294,74.456 57.551 C 73.857 58.312,73.910 61.013,74.543 61.970 C 74.795 62.349,75.000 62.786,75.000 62.941 C 75.000 63.268,77.511 65.735,78.250 66.133 C 81.006 67.621,83.179 68.329,85.000 68.332 C 85.412 68.333,85.987 68.465,86.277 68.625 C 86.567 68.786,87.113 69.088,87.491 69.298 C 90.813 71.142,90.182 74.544,86.402 75.167 C 83.392 75.664,81.037 74.807,80.046 72.854 C 78.280 69.375,73.667 69.341,73.667 72.807 C 73.667 73.662,74.123 74.965,74.651 75.619 C 74.889 75.913,75.258 76.382,75.471 76.661 C 75.795 77.083,77.754 78.663,78.445 79.059 C 78.553 79.120,79.028 79.244,79.501 79.333 C 79.973 79.423,80.560 79.634,80.805 79.801 C 82.221 80.772,87.611 80.789,89.000 79.828 C 89.229 79.669,89.847 79.450,90.374 79.341 C 91.086 79.194,91.577 78.947,92.291 78.379 C 96.928 74.682,97.381 70.519,93.541 66.900 C 92.831 66.231,91.950 65.559,91.583 65.408 C 91.217 65.256,90.767 65.053,90.583 64.955 C 89.351 64.300,88.660 64.000,88.384 64.000 C 86.384 64.000,81.052 61.906,80.542 60.920 C 79.128 58.187,82.719 55.926,86.657 57.071 C 88.218 57.525,88.336 57.615,88.739 58.667 C 89.532 60.735,92.400 61.696,94.617 60.636 C 96.669 59.656,93.985 54.220,90.769 52.842 C 87.441 51.415,83.906 50.929,82.167 51.659 M203.142 51.413 C 203.098 51.457,202.336 51.682,201.448 51.913 C 199.523 52.413,198.607 52.837,197.190 53.884 C 196.607 54.314,196.071 54.667,195.998 54.667 C 195.587 54.667,194.000 57.818,194.000 58.635 C 194.000 61.136,198.426 61.849,199.601 59.538 C 200.432 57.904,201.010 57.440,202.851 56.930 C 206.530 55.911,209.512 58.047,209.092 61.402 C 208.890 63.021,208.712 63.091,205.000 63.006 C 201.935 62.936,197.800 63.823,196.745 64.778 C 196.560 64.946,196.120 65.231,195.768 65.412 C 195.108 65.750,193.573 67.327,193.329 67.917 C 192.905 68.940,192.469 71.460,192.565 72.326 C 192.911 75.430,193.210 76.132,194.956 77.937 C 196.035 79.053,196.307 79.234,197.139 79.392 C 197.445 79.450,197.895 79.634,198.139 79.801 C 199.659 80.840,203.209 80.850,204.678 79.820 C 204.914 79.655,205.444 79.435,205.856 79.331 C 206.368 79.202,206.931 78.852,207.630 78.230 L 208.654 77.318 209.159 77.580 C 209.459 77.734,209.828 78.162,210.066 78.629 C 210.598 79.673,211.189 80.001,212.526 79.995 C 215.044 79.983,215.954 79.065,215.743 76.750 C 215.685 76.108,215.625 71.946,215.610 67.500 L 215.583 59.417 215.042 58.417 C 214.744 57.867,214.500 57.304,214.499 57.167 C 214.495 56.647,213.683 55.234,213.158 54.833 C 212.858 54.604,212.333 54.141,211.991 53.804 C 211.196 53.018,209.964 52.398,208.553 52.070 C 207.939 51.928,207.179 51.704,206.865 51.572 C 206.327 51.348,203.336 51.220,203.142 51.413 M88.674 52.546 C 92.314 53.740,94.866 56.329,94.900 58.861 C 94.919 60.229,94.595 60.523,92.952 60.628 C 91.284 60.735,90.091 60.271,89.604 59.326 C 88.714 57.602,88.552 57.412,87.590 56.949 C 83.438 54.954,78.769 57.566,80.232 61.066 C 80.701 62.190,83.974 63.667,87.017 64.128 C 87.623 64.220,88.673 64.558,89.351 64.879 C 90.029 65.200,90.864 65.540,91.208 65.635 C 92.305 65.936,94.602 68.345,95.140 69.760 C 96.555 73.477,93.901 78.106,89.750 79.160 C 89.292 79.276,88.504 79.520,88.000 79.702 C 86.344 80.301,82.534 80.274,81.749 79.658 C 81.656 79.585,81.073 79.408,80.453 79.265 C 79.301 78.997,78.385 78.596,77.695 78.055 C 76.220 76.898,75.821 76.496,75.052 75.384 C 73.756 73.513,73.690 71.612,74.897 70.966 C 76.042 70.353,79.333 71.403,79.333 72.382 C 79.333 72.468,79.676 73.053,80.094 73.683 L 80.855 74.827 82.219 75.252 C 86.494 76.582,90.000 75.070,90.000 71.896 C 90.000 71.063,89.658 70.429,88.833 69.732 C 87.401 68.521,86.923 68.337,83.875 67.827 C 83.303 67.731,82.553 67.548,82.209 67.421 C 80.107 66.643,78.331 65.799,77.768 65.312 C 77.411 65.003,76.839 64.505,76.496 64.207 C 75.919 63.704,75.448 62.914,74.738 61.263 C 74.059 59.683,74.890 56.790,76.448 55.304 C 76.706 55.058,77.260 54.521,77.680 54.109 C 78.485 53.321,79.161 52.965,80.238 52.763 C 80.598 52.696,81.198 52.500,81.571 52.329 C 83.113 51.622,86.137 51.714,88.674 52.546 M208.542 52.487 C 210.646 53.135,210.844 53.252,212.438 54.782 L 213.792 56.083 214.437 58.000 L 215.081 59.917 215.194 68.417 C 215.256 73.092,215.310 77.254,215.313 77.667 C 215.321 78.755,214.869 79.153,213.422 79.333 C 211.322 79.593,210.762 79.353,210.101 77.908 C 209.495 76.584,208.963 76.529,207.725 77.661 C 206.712 78.586,205.893 79.066,204.890 79.321 C 204.538 79.410,203.838 79.635,203.333 79.820 C 202.087 80.277,200.386 80.280,199.450 79.828 C 199.065 79.641,198.300 79.372,197.750 79.230 C 196.785 78.981,195.667 78.425,195.667 78.194 C 195.667 78.132,195.245 77.640,194.729 77.099 C 193.218 75.513,192.747 73.397,193.167 70.083 C 193.375 68.438,195.179 65.667,196.041 65.667 C 196.118 65.667,196.646 65.365,197.214 64.996 C 198.302 64.289,198.655 64.171,200.667 63.843 C 203.274 63.418,204.284 63.330,205.365 63.434 C 208.609 63.746,209.530 63.246,209.560 61.158 C 209.605 58.031,207.756 56.245,204.500 56.271 C 202.061 56.291,200.445 57.132,199.585 58.830 C 198.588 60.798,196.004 61.144,194.811 59.469 C 194.088 58.453,195.373 55.260,196.750 54.650 C 196.933 54.569,197.544 54.176,198.107 53.777 C 200.740 51.908,204.965 51.386,208.542 52.487 M272.050 52.309 C 272.546 52.805,272.793 54.676,272.477 55.542 C 272.109 56.551,271.534 56.831,269.459 57.011 C 266.999 57.224,266.959 57.240,265.844 58.431 C 264.121 60.274,264.262 59.350,264.167 69.455 L 264.083 78.326 263.639 78.770 C 262.825 79.584,260.748 79.620,259.809 78.837 L 259.250 78.370 259.204 66.268 C 259.154 53.024,259.116 53.582,260.126 52.862 C 261.342 51.996,263.034 52.409,263.776 53.753 C 264.488 55.045,264.542 55.045,266.005 53.745 C 266.464 53.338,267.044 52.954,267.294 52.891 C 267.545 52.828,268.087 52.627,268.500 52.444 C 270.022 51.768,271.454 51.713,272.050 52.309 M203.167 67.775 C 200.023 68.249,197.782 70.601,198.344 72.835 C 198.965 75.301,203.726 76.152,206.632 74.317 C 210.130 72.109,210.892 68.184,207.901 67.774 C 207.094 67.663,203.902 67.664,203.167 67.775 M208.215 68.275 C 209.198 68.437,209.630 70.352,208.926 71.426 C 208.783 71.644,208.667 71.937,208.667 72.077 C 208.667 72.218,208.600 72.333,208.517 72.333 C 208.435 72.333,208.004 72.680,207.559 73.105 C 203.708 76.776,196.277 74.388,199.370 70.473 C 200.674 68.823,201.114 68.472,202.056 68.334 C 203.136 68.176,207.371 68.135,208.215 68.275 " stroke="none" fill="#fca057" fill-rule="evenodd"></path><path id="path3" d="M142.723 45.888 C 140.702 46.099,140.625 46.214,140.481 49.210 L 140.367 51.571 139.835 52.047 C 139.418 52.419,139.167 52.513,138.682 52.478 C 136.872 52.348,135.981 53.799,136.700 55.707 C 136.963 56.404,137.875 56.896,138.670 56.769 C 139.236 56.678,139.396 56.732,139.906 57.179 L 140.491 57.694 140.537 66.222 L 140.583 74.750 141.071 75.667 C 141.339 76.171,141.768 77.008,142.023 77.527 C 142.460 78.414,143.705 79.333,144.468 79.333 C 144.554 79.333,144.980 79.491,145.415 79.683 C 146.536 80.179,148.023 80.189,149.033 79.707 C 149.463 79.501,149.881 79.333,149.961 79.333 C 150.368 79.333,151.124 78.374,151.224 77.731 C 151.437 76.352,150.507 75.571,148.176 75.174 C 145.905 74.787,146.000 75.200,146.000 65.667 C 146.000 56.086,145.830 56.677,148.583 56.668 C 150.425 56.661,151.333 55.973,151.333 54.583 C 151.333 53.108,150.543 52.557,148.284 52.457 C 146.188 52.364,146.177 52.349,146.013 49.317 C 145.822 45.782,145.633 45.584,142.723 45.888 M317.222 45.949 C 316.176 46.153,315.669 47.291,315.668 49.438 C 315.666 51.885,315.525 52.059,313.028 52.682 C 311.382 53.092,310.766 55.800,312.218 56.246 C 314.978 57.092,315.362 57.242,315.517 57.532 C 315.630 57.743,315.684 60.570,315.673 65.684 L 315.657 73.514 316.075 74.839 C 316.973 77.680,317.643 78.557,319.377 79.153 C 319.866 79.321,320.578 79.618,320.960 79.813 C 322.928 80.817,326.168 79.402,326.166 77.539 C 326.165 76.014,325.493 75.380,323.707 75.220 C 322.653 75.126,322.540 75.075,321.875 74.390 L 321.167 73.661 321.167 65.736 C 321.167 56.261,320.980 56.882,323.853 56.777 C 325.631 56.712,326.167 56.204,326.167 54.583 C 326.167 52.992,325.713 52.545,323.963 52.410 C 321.327 52.207,321.354 52.238,321.178 49.198 C 320.993 46.010,320.209 45.367,317.222 45.949 M144.834 46.584 C 145.490 46.923,145.665 47.649,145.666 50.039 C 145.667 52.731,145.868 52.978,148.200 53.155 C 150.246 53.309,150.667 53.549,150.667 54.561 C 150.667 55.634,150.352 55.832,148.388 56.003 C 145.421 56.261,145.667 55.380,145.667 65.750 C 145.667 75.948,145.442 75.050,148.167 75.767 C 150.177 76.296,150.756 76.770,150.574 77.739 C 150.104 80.249,143.073 79.428,142.302 76.773 C 142.192 76.394,141.910 75.783,141.676 75.417 L 141.250 74.750 141.167 66.083 C 141.087 57.748,141.071 57.399,140.750 56.965 C 140.305 56.362,139.360 55.990,138.591 56.114 C 138.078 56.198,137.907 56.140,137.492 55.742 C 136.438 54.733,137.137 53.179,138.656 53.154 C 140.480 53.125,140.976 52.388,141.160 49.428 C 141.322 46.824,141.353 46.760,142.583 46.528 C 143.821 46.294,144.297 46.306,144.834 46.584 M319.676 46.505 C 320.327 46.853,320.551 47.640,320.633 49.865 C 320.734 52.628,320.860 52.782,323.196 53.003 C 325.490 53.220,325.891 53.501,325.720 54.772 C 325.566 55.924,325.345 56.075,323.767 56.102 C 320.429 56.160,320.618 55.581,320.654 65.642 C 320.690 75.434,320.665 75.336,323.229 75.739 C 324.969 76.012,325.968 76.669,325.750 77.397 C 325.720 77.499,325.650 77.786,325.596 78.034 C 325.337 79.219,322.766 79.621,320.384 78.850 C 318.371 78.198,317.780 77.727,317.315 76.404 C 317.125 75.863,316.882 75.269,316.776 75.085 C 316.640 74.848,316.559 72.196,316.500 66.055 L 316.417 57.360 316.017 56.935 C 315.790 56.693,315.214 56.397,314.684 56.249 C 312.920 55.758,312.373 55.502,312.270 55.118 C 311.963 53.973,312.296 53.617,314.196 53.065 C 316.213 52.479,316.304 52.350,316.434 49.916 C 316.552 47.719,316.790 46.959,317.480 46.584 C 317.994 46.305,319.219 46.261,319.676 46.505 M82.750 51.939 C 82.475 51.982,81.945 52.158,81.571 52.329 C 81.198 52.500,80.598 52.696,80.238 52.763 C 79.161 52.965,78.485 53.321,77.680 54.109 C 77.260 54.521,76.706 55.058,76.448 55.304 C 74.890 56.790,74.059 59.683,74.738 61.263 C 75.448 62.914,75.919 63.704,76.496 64.207 C 76.839 64.505,77.411 65.003,77.768 65.312 C 78.331 65.799,80.107 66.643,82.209 67.421 C 82.553 67.548,83.303 67.731,83.875 67.827 C 86.923 68.337,87.401 68.521,88.833 69.732 C 89.658 70.429,90.000 71.063,90.000 71.896 C 90.000 75.070,86.494 76.582,82.219 75.252 L 80.855 74.827 80.094 73.683 C 79.676 73.053,79.333 72.468,79.333 72.382 C 79.333 71.750,77.526 70.821,76.250 70.796 C 74.559 70.763,73.864 71.549,74.076 73.253 C 74.287 74.939,76.506 77.542,78.705 78.681 C 79.047 78.858,79.833 79.121,80.453 79.265 C 81.073 79.408,81.656 79.585,81.749 79.658 C 82.534 80.274,86.344 80.301,88.000 79.702 C 88.504 79.520,89.292 79.276,89.750 79.160 C 93.901 78.106,96.555 73.477,95.140 69.760 C 94.602 68.345,92.305 65.936,91.208 65.635 C 90.864 65.540,90.029 65.200,89.351 64.879 C 88.673 64.558,87.623 64.220,87.017 64.128 C 83.974 63.667,80.701 62.190,80.232 61.066 C 78.769 57.566,83.438 54.954,87.590 56.949 C 88.552 57.412,88.714 57.602,89.604 59.326 C 90.274 60.625,93.547 61.194,94.553 60.188 C 95.813 58.928,93.601 54.776,90.924 53.380 C 88.862 52.304,84.888 51.603,82.750 51.939 M202.833 51.989 C 201.104 52.311,199.111 53.064,198.107 53.777 C 197.544 54.176,196.933 54.569,196.750 54.650 C 195.373 55.260,194.088 58.453,194.811 59.469 C 196.004 61.144,198.588 60.798,199.585 58.830 C 200.445 57.132,202.061 56.291,204.500 56.271 C 207.756 56.245,209.605 58.031,209.560 61.158 C 209.530 63.246,208.609 63.746,205.365 63.434 C 204.284 63.330,203.274 63.418,200.667 63.843 C 198.655 64.171,198.302 64.289,197.214 64.996 C 196.646 65.365,196.118 65.667,196.041 65.667 C 195.179 65.667,193.375 68.438,193.167 70.083 C 192.747 73.397,193.218 75.513,194.729 77.099 C 195.245 77.640,195.667 78.132,195.667 78.194 C 195.667 78.425,196.785 78.981,197.750 79.230 C 198.300 79.372,199.065 79.641,199.450 79.828 C 200.386 80.280,202.087 80.277,203.333 79.820 C 203.838 79.635,204.538 79.410,204.890 79.321 C 205.893 79.066,206.712 78.586,207.725 77.661 C 208.963 76.529,209.495 76.584,210.101 77.908 C 210.762 79.353,211.322 79.593,213.422 79.333 C 214.869 79.153,215.321 78.755,215.313 77.667 C 215.310 77.254,215.256 73.092,215.194 68.417 L 215.081 59.917 214.437 58.000 L 213.792 56.083 212.438 54.782 C 210.074 52.512,206.154 51.372,202.833 51.989 M269.750 51.981 C 269.475 52.052,268.912 52.261,268.500 52.444 C 268.087 52.627,267.545 52.828,267.294 52.891 C 267.044 52.954,266.464 53.338,266.005 53.745 C 264.542 55.045,264.488 55.045,263.776 53.753 C 263.034 52.409,261.342 51.996,260.126 52.862 C 259.116 53.582,259.154 53.024,259.204 66.268 L 259.250 78.370 259.809 78.837 C 260.748 79.620,262.825 79.584,263.639 78.770 L 264.083 78.326 264.167 69.455 C 264.262 59.350,264.121 60.274,265.844 58.431 C 266.959 57.240,266.999 57.224,269.459 57.011 C 272.236 56.770,272.938 56.023,272.544 53.724 C 272.270 52.123,271.368 51.560,269.750 51.981 M86.533 52.681 C 88.386 53.061,90.757 53.867,91.167 54.257 C 93.556 56.528,94.663 58.160,94.434 59.075 C 94.219 59.929,92.173 60.502,91.407 59.922 C 91.229 59.787,90.971 59.674,90.833 59.671 C 90.696 59.667,90.427 59.421,90.237 59.124 C 90.046 58.827,89.693 58.271,89.452 57.888 C 87.421 54.672,81.589 54.817,79.787 58.129 C 78.164 61.110,80.707 63.626,86.296 64.573 C 87.301 64.743,88.170 65.010,88.778 65.334 C 89.293 65.609,89.834 65.834,89.982 65.835 C 90.412 65.837,91.774 66.555,92.201 67.004 C 92.417 67.231,92.898 67.687,93.270 68.017 C 95.388 69.897,95.257 74.941,93.050 76.463 C 92.822 76.621,92.474 76.900,92.276 77.083 C 91.709 77.610,90.362 78.500,90.129 78.502 C 90.012 78.504,89.167 78.689,88.250 78.915 C 85.416 79.612,81.246 79.284,79.027 78.191 C 76.349 76.871,73.715 72.929,74.834 71.916 C 76.027 70.836,79.249 72.178,79.340 73.794 C 79.352 74.002,80.397 75.105,80.768 75.301 C 83.693 76.844,85.851 76.832,88.947 75.257 C 90.109 74.666,90.887 72.669,90.590 71.044 C 90.319 69.562,87.730 67.872,85.033 67.416 C 83.607 67.175,81.314 66.477,80.917 66.163 C 80.825 66.091,80.316 65.906,79.786 65.752 C 78.118 65.269,76.096 63.259,75.594 61.583 C 74.816 58.989,75.482 56.939,77.812 54.756 C 78.915 53.722,78.672 53.824,82.583 52.756 C 83.615 52.474,85.364 52.441,86.533 52.681 M206.667 52.735 C 210.018 53.426,210.460 53.632,212.072 55.266 C 214.225 57.447,214.338 58.091,214.335 68.123 C 214.334 73.434,214.393 76.052,214.526 76.549 C 214.712 77.243,214.656 77.850,214.365 78.294 C 214.114 78.678,212.452 78.922,211.674 78.689 C 211.049 78.501,210.932 78.375,210.450 77.366 C 209.658 75.709,209.095 75.698,207.244 77.301 C 206.514 77.934,205.729 78.490,205.500 78.537 C 205.271 78.585,204.461 78.789,203.701 78.991 C 201.982 79.449,200.580 79.396,198.250 78.786 C 196.419 78.307,195.914 77.904,194.378 75.696 L 193.762 74.810 193.694 72.628 C 193.600 69.615,193.791 68.838,194.978 67.417 C 195.394 66.918,196.386 66.147,197.023 65.827 C 197.423 65.627,197.910 65.316,198.105 65.137 C 198.667 64.624,200.738 64.335,204.922 64.187 C 208.988 64.043,209.189 64.001,209.899 63.158 C 210.471 62.478,210.540 60.132,210.016 59.167 C 209.842 58.846,209.570 58.336,209.411 58.034 C 208.900 57.065,206.818 55.747,205.282 55.421 C 203.531 55.050,199.167 57.130,199.167 58.336 C 199.167 59.535,197.002 60.229,195.875 59.391 C 194.734 58.543,195.652 55.939,197.464 54.883 C 197.896 54.631,198.362 54.297,198.500 54.141 C 199.418 53.102,204.335 52.255,206.667 52.735 M271.634 53.063 C 271.804 53.232,271.925 53.715,271.968 54.389 C 272.068 55.963,271.810 56.138,268.869 56.489 C 266.673 56.752,266.246 56.967,264.992 58.437 C 263.479 60.212,263.586 59.415,263.558 69.106 C 263.528 79.180,263.605 78.833,261.393 78.833 C 259.797 78.833,259.809 78.943,259.867 65.583 L 259.917 54.083 260.322 53.625 C 261.053 52.798,263.094 53.247,263.472 54.318 C 263.969 55.729,264.660 55.796,265.935 54.557 C 266.686 53.827,267.786 53.279,269.417 52.824 C 270.134 52.623,271.323 52.751,271.634 53.063 M202.417 67.304 C 198.217 68.184,196.253 71.898,198.609 74.506 C 200.135 76.196,205.153 76.330,207.052 74.732 C 207.312 74.513,207.576 74.333,207.638 74.332 C 207.924 74.330,209.850 72.283,210.077 71.738 C 210.586 70.521,210.430 68.493,209.780 67.862 C 208.863 66.973,205.289 66.703,202.417 67.304 M207.901 67.774 C 210.221 68.092,210.371 71.038,208.172 73.094 C 206.151 74.985,204.478 75.496,201.426 75.155 C 196.345 74.587,197.760 68.590,203.167 67.775 C 203.902 67.664,207.094 67.663,207.901 67.774 " stroke="none" fill="#fcb479" fill-rule="evenodd"></path><path id="path4" d="M140.849 45.051 C 139.798 45.419,139.669 45.784,139.522 48.798 C 139.374 51.811,139.385 51.776,138.665 51.524 C 136.904 50.910,135.833 52.067,135.833 54.583 C 135.833 57.215,136.135 57.563,138.384 57.532 C 139.621 57.515,139.501 56.560,139.545 66.762 C 139.586 76.238,139.551 75.813,140.374 76.746 C 140.457 76.840,140.688 77.186,140.888 77.516 C 141.884 79.162,142.027 79.323,142.585 79.428 C 142.892 79.486,143.180 79.628,143.224 79.743 C 143.269 79.859,143.818 80.245,144.444 80.600 C 146.504 81.767,149.917 81.343,151.305 79.747 C 151.503 79.520,151.734 79.333,151.819 79.333 C 152.352 79.333,152.463 76.748,151.974 75.726 C 151.631 75.008,150.292 74.363,148.871 74.231 C 148.218 74.170,147.497 73.995,147.261 73.840 L 146.833 73.560 146.815 65.688 C 146.805 61.358,146.844 57.768,146.901 57.710 C 146.959 57.652,147.929 57.561,149.057 57.507 C 151.556 57.389,151.870 57.236,152.169 55.990 C 152.425 54.923,152.304 52.984,151.947 52.440 C 151.522 51.791,149.156 51.087,148.742 51.486 C 148.596 51.626,147.993 51.729,147.575 51.685 C 147.210 51.647,146.783 49.984,146.807 48.700 C 146.821 48.009,146.764 47.176,146.682 46.847 C 146.600 46.519,146.487 46.045,146.431 45.795 C 146.227 44.890,142.663 44.416,140.849 45.051 M316.211 45.058 C 314.814 45.438,314.629 45.811,314.512 48.472 C 314.386 51.362,314.181 51.697,312.508 51.740 C 310.953 51.780,310.267 53.065,310.572 55.367 C 310.803 57.107,311.062 57.340,312.957 57.513 C 313.730 57.583,314.396 57.674,314.436 57.713 C 314.475 57.753,314.525 61.628,314.546 66.324 L 314.583 74.862 315.053 75.266 C 315.384 75.551,315.618 76.016,315.849 76.851 C 316.165 77.991,317.004 79.332,317.403 79.334 C 317.502 79.335,317.771 79.438,318.000 79.564 C 321.972 81.744,322.507 81.849,324.583 80.850 C 326.527 79.915,327.167 79.066,327.167 77.421 C 327.167 75.332,326.347 74.469,324.101 74.190 C 323.382 74.100,322.724 73.957,322.637 73.871 C 322.520 73.753,322.406 61.447,322.491 58.067 C 322.499 57.742,322.624 57.709,324.201 57.605 C 326.721 57.440,327.160 56.985,327.192 54.505 C 327.218 52.560,326.219 51.337,324.599 51.331 C 322.625 51.324,322.475 51.114,322.434 48.291 L 322.406 46.333 321.828 45.777 C 320.860 44.847,318.227 44.510,316.211 45.058 M145.743 45.886 C 146.195 46.338,146.333 46.986,146.333 48.654 C 146.333 52.088,146.286 52.025,148.871 52.061 L 150.526 52.083 151.096 52.706 C 151.689 53.353,151.736 53.533,151.670 54.917 C 151.590 56.579,150.723 57.167,148.351 57.167 C 146.134 57.167,146.333 56.338,146.336 65.554 C 146.338 73.231,146.377 74.167,146.693 74.167 C 146.778 74.167,147.050 74.309,147.298 74.484 C 147.557 74.666,148.327 74.887,149.100 75.001 C 150.644 75.228,150.616 75.215,151.217 76.016 C 151.823 76.823,151.860 78.229,151.292 78.801 C 149.682 80.422,146.814 81.035,145.065 80.132 C 144.800 79.996,144.358 79.767,144.083 79.625 C 143.808 79.482,143.322 79.257,143.003 79.125 C 142.404 78.876,141.553 77.679,140.543 75.667 L 140.083 74.750 140.034 66.255 C 139.978 56.541,140.081 57.167,138.549 57.167 C 136.834 57.167,136.167 56.449,136.167 54.602 C 136.167 52.676,136.777 52.002,138.521 52.001 C 139.798 52.000,139.840 51.920,139.992 49.215 C 140.176 45.943,140.302 45.769,142.750 45.418 C 144.186 45.212,145.233 45.376,145.743 45.886 M320.270 45.652 C 321.362 46.148,321.500 46.471,321.500 48.534 C 321.500 51.543,321.827 52.000,323.976 52.000 C 326.111 52.000,326.987 53.139,326.505 55.292 C 326.168 56.800,325.681 57.167,324.018 57.167 C 323.106 57.167,322.490 57.256,322.089 57.448 L 321.500 57.728 321.500 65.580 L 321.500 73.432 322.160 74.077 C 322.753 74.656,322.960 74.744,324.182 74.938 C 326.347 75.283,327.092 76.597,326.308 78.688 C 325.632 80.486,321.517 81.216,319.917 79.820 C 319.733 79.661,319.283 79.449,318.917 79.350 C 317.449 78.955,316.886 78.251,315.909 75.583 C 315.674 74.942,315.411 74.286,315.324 74.127 C 315.231 73.957,315.167 70.530,315.167 65.771 L 315.167 57.705 314.756 57.436 C 314.530 57.288,314.196 57.167,314.014 57.167 C 312.338 57.167,311.187 56.415,311.133 55.284 C 311.016 52.821,311.268 52.461,313.358 52.112 C 314.906 51.853,315.019 51.658,315.169 49.000 C 315.315 46.433,315.404 46.279,317.167 45.532 C 317.853 45.242,319.506 45.306,320.270 45.652 M81.796 50.926 C 81.546 51.062,81.265 51.316,81.171 51.491 C 81.048 51.722,80.737 51.841,80.042 51.925 C 78.676 52.089,78.184 52.336,77.157 53.369 C 76.658 53.872,76.038 54.419,75.779 54.585 C 75.521 54.752,75.196 55.170,75.058 55.514 C 74.920 55.859,74.705 56.180,74.579 56.229 C 73.226 56.748,73.214 62.507,74.564 63.282 C 74.692 63.356,74.913 63.695,75.054 64.036 C 75.216 64.426,75.455 64.691,75.699 64.752 C 75.912 64.806,76.214 65.071,76.369 65.341 C 76.524 65.612,76.842 65.920,77.076 66.027 C 77.309 66.133,77.500 66.287,77.500 66.368 C 77.500 66.570,79.165 67.330,79.614 67.332 C 79.820 67.333,80.020 67.467,80.075 67.641 C 80.229 68.125,80.859 68.315,82.942 68.509 C 85.060 68.707,86.324 69.194,88.058 70.483 L 88.867 71.083 88.790 72.321 C 88.707 73.658,88.378 74.167,87.598 74.167 C 87.398 74.167,87.140 74.260,87.025 74.375 C 86.632 74.768,83.432 74.623,82.100 74.153 C 80.854 73.712,80.832 73.688,80.432 72.333 C 79.999 70.863,79.051 70.000,77.869 70.000 C 77.510 70.000,76.982 69.918,76.696 69.819 C 76.114 69.616,73.972 70.001,73.863 70.329 C 73.830 70.426,73.711 70.598,73.599 70.711 C 72.911 71.401,72.820 73.212,73.413 74.417 C 73.638 74.875,73.825 75.314,73.828 75.393 C 73.831 75.471,74.133 75.912,74.500 76.373 C 74.867 76.833,75.167 77.265,75.167 77.333 C 75.167 77.400,75.457 77.648,75.812 77.883 C 76.167 78.118,76.662 78.499,76.912 78.731 C 77.161 78.962,77.640 79.236,77.974 79.338 C 78.309 79.441,79.108 79.775,79.750 80.081 C 82.360 81.324,82.033 81.250,84.917 81.250 L 87.583 81.250 88.917 80.676 C 89.650 80.360,90.418 79.975,90.624 79.820 C 90.829 79.665,91.279 79.487,91.624 79.425 C 91.978 79.361,92.467 79.100,92.750 78.823 C 93.025 78.554,93.615 78.016,94.061 77.628 C 94.570 77.185,95.017 76.595,95.260 76.044 C 95.474 75.562,95.726 75.167,95.820 75.167 C 96.629 75.167,96.955 70.324,96.209 69.387 C 96.003 69.128,95.655 68.579,95.435 68.167 C 95.215 67.754,94.709 67.159,94.310 66.845 C 93.910 66.531,93.376 66.030,93.124 65.733 C 92.871 65.436,92.440 65.143,92.167 65.083 C 91.894 65.023,91.625 64.901,91.569 64.811 C 91.309 64.389,88.323 63.167,87.546 63.164 C 86.497 63.160,84.520 62.735,84.184 62.440 C 83.788 62.095,82.992 61.723,82.350 61.585 C 79.140 60.893,80.871 57.335,84.417 57.335 C 87.120 57.335,88.034 57.805,88.465 59.418 C 88.862 60.903,89.750 61.331,92.438 61.332 C 95.862 61.334,96.947 60.339,95.768 58.280 C 95.549 57.897,95.320 57.233,95.260 56.804 C 95.159 56.087,94.024 54.333,93.661 54.333 C 93.599 54.333,93.086 53.886,92.521 53.340 C 91.532 52.385,90.781 52.003,89.886 52.001 C 89.345 52.000,88.765 51.742,88.270 51.283 C 87.543 50.610,82.855 50.352,81.796 50.926 M201.762 50.915 C 201.402 51.043,201.045 51.259,200.969 51.395 C 200.816 51.668,200.115 51.920,199.057 52.084 C 198.675 52.143,198.229 52.339,198.065 52.520 C 197.902 52.701,197.524 52.964,197.227 53.105 C 196.930 53.247,196.568 53.543,196.423 53.764 C 196.278 53.986,196.051 54.167,195.918 54.167 C 195.648 54.167,194.446 55.714,194.260 56.303 C 194.193 56.512,193.920 56.907,193.653 57.181 C 192.910 57.941,192.924 59.806,193.679 60.511 C 195.052 61.794,199.273 61.561,199.899 60.167 C 200.901 57.936,201.950 57.338,204.867 57.335 C 206.868 57.332,207.443 57.574,207.761 58.553 C 207.916 59.028,208.182 59.572,208.354 59.761 C 208.908 60.370,208.774 61.328,208.035 62.050 C 207.320 62.747,206.595 62.842,204.771 62.476 C 204.090 62.339,203.715 62.335,203.451 62.463 C 203.249 62.560,202.108 62.763,200.917 62.913 C 199.725 63.062,198.567 63.223,198.344 63.270 C 197.890 63.365,195.667 64.645,195.667 64.811 C 195.667 64.869,195.331 65.095,194.921 65.313 C 194.511 65.530,194.130 65.853,194.074 66.030 C 194.017 66.207,193.802 66.417,193.595 66.496 C 193.329 66.597,193.155 66.876,193.003 67.445 C 192.885 67.888,192.676 68.432,192.538 68.654 C 191.691 70.020,191.626 74.253,192.437 75.180 C 192.564 75.326,192.787 75.794,192.933 76.222 C 193.079 76.650,193.361 77.132,193.560 77.292 C 193.759 77.452,194.247 77.973,194.646 78.449 C 195.110 79.005,195.549 79.354,195.870 79.425 C 196.145 79.485,196.497 79.644,196.653 79.777 C 199.013 81.798,203.799 81.812,206.091 79.804 C 206.279 79.640,206.670 79.458,206.959 79.400 C 207.312 79.329,207.672 79.056,208.051 78.568 L 208.617 77.842 208.963 78.213 C 209.153 78.417,209.505 78.976,209.745 79.457 C 210.320 80.605,210.474 80.667,212.756 80.667 C 216.693 80.667,216.484 81.314,216.446 69.250 L 216.417 59.750 215.958 58.918 C 215.706 58.460,215.500 58.011,215.500 57.920 C 215.500 57.772,215.192 57.074,214.361 55.337 C 214.208 55.019,213.933 54.680,213.750 54.586 C 213.567 54.491,212.967 53.974,212.417 53.438 C 211.327 52.375,210.821 52.099,209.647 51.930 C 209.148 51.859,208.691 51.653,208.347 51.346 C 207.533 50.619,203.359 50.345,201.762 50.915 M268.596 51.225 C 268.257 51.585,267.838 51.827,267.416 51.906 C 266.658 52.048,265.833 52.441,265.833 52.660 C 265.833 52.743,265.665 52.862,265.458 52.925 C 265.252 52.988,264.953 53.154,264.793 53.295 C 264.524 53.530,264.477 53.488,264.163 52.733 C 263.589 51.354,261.887 50.747,260.442 51.406 C 260.153 51.538,259.653 51.752,259.332 51.881 C 258.889 52.059,258.636 52.335,258.290 53.019 L 257.833 53.921 257.834 66.002 C 257.834 77.622,257.846 78.106,258.155 78.667 C 258.332 78.987,258.554 79.415,258.648 79.617 C 259.295 81.005,263.200 81.111,264.500 79.776 C 265.515 78.733,265.515 78.727,265.491 69.063 L 265.469 60.294 265.984 59.823 C 266.268 59.564,266.500 59.248,266.500 59.121 C 266.500 58.994,266.706 58.787,266.958 58.661 C 267.210 58.535,267.604 58.268,267.833 58.067 C 268.197 57.748,268.492 57.693,270.167 57.631 C 273.177 57.518,273.667 57.065,273.667 54.387 C 273.667 51.299,273.165 50.667,270.715 50.667 C 269.125 50.667,269.122 50.667,268.596 51.225 M271.539 51.341 C 272.512 51.612,273.000 52.580,273.000 54.239 C 273.000 56.626,272.512 57.129,270.067 57.262 C 267.735 57.390,267.141 57.573,266.392 58.394 C 264.516 60.449,264.603 59.895,264.593 69.767 C 264.582 79.455,264.678 78.794,263.169 79.600 C 261.644 80.416,259.491 79.817,258.905 78.414 C 258.622 77.737,258.544 54.345,258.822 53.613 C 259.621 51.511,262.922 51.360,263.936 53.379 C 264.177 53.858,264.397 54.277,264.426 54.309 C 264.455 54.341,264.981 53.990,265.595 53.528 C 266.209 53.065,267.132 52.523,267.647 52.322 C 268.162 52.120,268.958 51.781,269.417 51.567 C 270.359 51.128,270.657 51.096,271.539 51.341 M88.130 51.935 C 92.237 53.217,94.438 55.109,95.103 57.931 C 95.611 60.088,95.208 60.750,93.260 60.951 C 90.902 61.194,89.421 60.447,88.739 58.667 C 88.336 57.615,88.218 57.525,86.657 57.071 C 82.719 55.926,79.128 58.187,80.542 60.920 C 81.052 61.906,86.384 64.000,88.384 64.000 C 88.660 64.000,89.351 64.300,90.583 64.955 C 90.767 65.053,91.217 65.256,91.583 65.408 C 91.950 65.559,92.831 66.231,93.541 66.900 C 97.381 70.519,96.928 74.682,92.291 78.379 C 91.577 78.947,91.086 79.194,90.374 79.341 C 89.847 79.450,89.229 79.669,89.000 79.828 C 87.611 80.789,82.221 80.772,80.805 79.801 C 80.560 79.634,79.973 79.423,79.501 79.333 C 79.028 79.244,78.553 79.120,78.445 79.059 C 77.754 78.663,75.795 77.083,75.471 76.661 C 75.258 76.382,74.889 75.913,74.651 75.619 C 74.123 74.965,73.667 73.662,73.667 72.807 C 73.667 69.341,78.280 69.375,80.046 72.854 C 81.431 75.583,86.565 76.271,88.751 74.021 C 90.336 72.390,89.862 70.615,87.491 69.298 C 87.113 69.088,86.567 68.786,86.277 68.625 C 85.987 68.465,85.412 68.333,85.000 68.332 C 83.179 68.329,81.006 67.621,78.250 66.133 C 77.511 65.735,75.000 63.268,75.000 62.941 C 75.000 62.786,74.795 62.349,74.543 61.970 C 73.910 61.013,73.857 58.312,74.456 57.551 C 74.659 57.294,74.969 56.772,75.146 56.392 C 75.322 56.011,75.777 55.411,76.158 55.058 C 76.538 54.705,77.201 54.074,77.633 53.656 C 78.286 53.022,78.666 52.819,79.917 52.435 C 80.742 52.181,81.754 51.832,82.167 51.659 C 83.499 51.100,85.796 51.206,88.130 51.935 M206.865 51.572 C 207.179 51.704,207.939 51.928,208.553 52.070 C 209.964 52.398,211.196 53.018,211.991 53.804 C 212.333 54.141,212.858 54.604,213.158 54.833 C 213.683 55.234,214.495 56.647,214.499 57.167 C 214.500 57.304,214.744 57.867,215.042 58.417 L 215.583 59.417 215.610 67.500 C 215.625 71.946,215.685 76.108,215.743 76.750 C 215.954 79.065,215.044 79.983,212.526 79.995 C 211.189 80.001,210.598 79.673,210.066 78.629 C 209.828 78.162,209.459 77.734,209.159 77.580 L 208.654 77.318 207.630 78.230 C 206.931 78.852,206.368 79.202,205.856 79.331 C 205.444 79.435,204.914 79.655,204.678 79.820 C 203.209 80.850,199.659 80.840,198.139 79.801 C 197.895 79.634,197.445 79.450,197.139 79.392 C 196.307 79.234,196.035 79.053,194.956 77.937 C 193.210 76.132,192.911 75.430,192.565 72.326 C 192.469 71.460,192.905 68.940,193.329 67.917 C 193.573 67.327,195.108 65.750,195.768 65.412 C 196.120 65.231,196.560 64.946,196.745 64.778 C 197.800 63.823,201.935 62.936,205.000 63.006 C 208.712 63.091,208.890 63.021,209.092 61.402 C 209.512 58.047,206.530 55.911,202.851 56.930 C 201.010 57.440,200.432 57.904,199.601 59.538 C 198.426 61.849,194.000 61.136,194.000 58.635 C 194.000 57.818,195.587 54.667,195.998 54.667 C 196.071 54.667,196.607 54.314,197.190 53.884 C 198.607 52.837,199.523 52.413,201.448 51.913 C 202.336 51.682,203.098 51.457,203.142 51.413 C 203.336 51.220,206.327 51.348,206.865 51.572 M202.056 68.334 C 201.114 68.472,200.674 68.823,199.370 70.473 C 196.277 74.388,203.708 76.776,207.559 73.105 C 208.004 72.680,208.435 72.333,208.517 72.333 C 208.600 72.333,208.667 72.218,208.667 72.077 C 208.667 71.937,208.783 71.644,208.926 71.426 C 209.233 70.958,209.299 69.225,209.029 68.722 C 208.740 68.182,204.652 67.954,202.056 68.334 M208.083 68.646 C 208.814 68.801,208.939 70.853,208.257 71.494 C 208.024 71.713,207.833 71.988,207.833 72.107 C 207.833 72.225,207.665 72.410,207.458 72.517 C 207.252 72.624,206.881 72.954,206.633 73.248 C 206.012 73.988,204.796 74.230,202.176 74.137 C 199.731 74.050,199.228 73.576,199.497 71.615 C 199.586 70.958,200.995 69.167,201.423 69.167 C 201.534 69.167,201.715 69.059,201.825 68.927 C 202.143 68.544,206.654 68.342,208.083 68.646 " stroke="none" fill="#fc872a" fill-rule="evenodd"></path></g></svg>